Encoded by Ratzz.








General
Complete name                    : Alvin & Chipmunks ChipWrecked 2011 1080p Brrip x264 Ratzz.mp4

Format                           : MP4
Format profile                   : Base Media
Codec ID                         : isom
File size                        : 1.20 GiB
Duration                         : 1h 27mn
Overall bit rate                 : 1 969 Kbps


Video
ID                               : 1
Format                           : AVC
Format/Info                      : Advanced Video Codec
Format profile                   : High@L4.0
Format settings, CABAC           : Yes
Format settings, ReFrames        : 3 frames
Duration                         : 1h 27mn
Bit rate mode                    : Variable
Bit rate                         : 1 905 Kbps
Maximum bit rate                 : 25.0 Mbps
Width                            : 1 920 pixels
Height                           : 1 040 pixels
Display aspect ratio             : 16:9
Frame rate mode                  : Constant
Frame rate                       : 23.976 fps
Color space                      : YUV
Chroma subsampling               : 4:2:0
Bit depth                        : 8 bits
Scan type                        : Progressive
Bits/(Pixel*Frame)               : 0.040
Stream size                      : 1.16 GiB (97%)

Audio
ID                               : 2
Format                           : AAC
Format/Info                      : Advanced Audio Codec
Format profile                   : HE-AAC / LC
Codec ID                         : 40
Duration                         : 1h 27mn
Bit rate mode                    : Variable
Bit rate                         : 64.0 Kbps
Maximum bit rate                 : 71.4 Kbps
Channel(s)                       : 2 channels
Channel positions                : Front: L R
Sampling rate                    : 48.0 KHz / 24.0 KHz
Compression mode                 : Lossy
Stream size                      : 39.9 MiB (3%)
Language                         : English





Subtitles                       : eng .srt file included.







Poster :

 
http://img850.imageshack.us/img850/9649/alvinchipmunkschipwreck.jpg



Screens :
 
http://img403.imageshack.us/img403/9649/alvinchipmunkschipwreck.jpg
 
http://img72.imageshack.us/img72/9649/alvinchipmunkschipwreck.jpg
 
http://img263.imageshack.us/img263/9649/alvinchipmunkschipwreck.jpg






pls seed back after download and provide feedback.
thank you.